<?xml version='1.0' encoding='utf-8'?>
<svg xmlns="http://www.w3.org/2000/svg" enable-background="new 0 0 1656.098 1656.098" version="1.1" viewBox="0 0 1656.098 1656.098">
<style type="text/css">
	.st0{fill:#E6E6E6;}
	.st1{fill:#D44117;}
	.st2{fill:#F2A438;}
	.st3{fill:#6BB427;}
	.st4{fill:#5775B1;}
</style>
				<path class="st0" d="m1620.5 898.49c21.156-18.849-6.236-52-27.117-32.459-20.425 19.026 6.87 50.49 27.117 32.459z"/>
				<path class="st0" d="m1536.8 923.7c0.759-5.417 0.519-3.547 1.129-8.857 47.132-0.163 51.729-68.211 5.102-74.8l0.113-8.93c60.057 6.254 53.278 94.518-6.344 92.587z"/>
				<path class="st0" d="m1585.7 880.52c-1.016 15.96-25.225 27.629-56.838 23.227 1.901-14.809 3.117-38.977 3.688-53.97 29.841-0.052 54.24 13.59 53.149 30.744l1e-3 -1e-3z"/>
					<path class="st0" d="m1469.8 858.82c-0.051 2.172-0.168 3.61-0.507 8.898l64.906 3.947c0.364-5.738 0.494-7.378 0.555-9.788l-64.954-3.057z"/>
					<polygon class="st0" points="1468.7 877.39 1467.9 886.26 1532.7 892.07 1533.5 882.3"/>
					<path class="st0" d="m1611 970.01c-14.552-22.416-49.754 0.202-34.786 24.197 15.257 24.424 50.049-0.489 34.786-24.197z"/>
					<path class="st0" d="m1518.6 1014.7c0.166-0.613 2.178-8.005 2.314-8.623 46.206 5.893 60.693-60.793 14.713-73.507l1.238-8.843c58.415 13.831 40.722 100.71-18.265 90.973z"/>
					<path class="st0" d="m1572.6 978.19c-3.012 15.624-28.522 24.161-59.405 15.66 3.424-14.026 7.088-31.569 10.64-53.019 29.472 3.778 52.033 20.339 48.765 37.361v-2e-3z"/>
						<polygon class="st0" points="1460.6 941.71 1458.9 950.44 1522.7 962.75 1524.6 953.12"/>
						<polygon class="st0" points="1457 959.93 1455.1 968.62 1518.6 982.78 1520.7 973.2"/>
					<path class="st0" d="m1586 1070.2c-11.686-24.595-49.162-5.786-37.584 19.481 12.036 26.208 49.627 6.002 37.584-19.481z"/>
					<path class="st0" d="m1488.6 1102.5l3.377-8.266c44.916 11.812 68.128-52.409 24.234-70.937l2.332-8.619c56.657 21.573 26.575 104.97-29.943 87.822z"/>
					<path class="st0" d="m1547 1073.4c-5.826 16.566-33.938 19.178-60.946 7.776 7.122-18.732 11.814-32.305 17.452-51.179 30.355 8.014 48.731 27.876 43.494 43.404v-1e-3z"/>
						<polygon class="st0" points="1440.6 1022.6 1437.8 1031 1499.5 1051.6 1502.6 1042.2"/>
						<polygon class="st0" points="1434.7 1040.2 1431.7 1048.6 1492.8 1070.9 1496.1 1061.6"/>
					<path class="st0" d="m1534.5 1194.3c17.589-5.955 20.583-31.903 3.213-39.891-16.026-7.37-34.607 7.992-29.226 26.38 3.336 11.085 14.852 17.382 26.013 13.511z"/>
					<path class="st0" d="m1447.5 1185.7c1.09-1.82 1.679-2.91 4.397-7.771 43.044 17.563 74.528-42.973 33.248-67.187 2.148-4.91 1.403-3.147 3.483-8.221 53.438 28.826 13.279 107.84-41.128 83.179z"/>
					<path class="st0" d="m1509.1 1164.4c-9.426 18.874-42.501 10.864-61.37-0.191 7.768-14.709 16.678-31.832 23.957-48.484 29.566 12.114 44.625 34.492 37.411 48.676l2e-3 -1e-3z"/>
						<path class="st0" d="m1410.2 1100.1c-3.415 7.324-2.717 5.87-3.801 8.043l58.5 28.393c1.152-2.317 0.396-0.733 4.19-8.86l-58.889-27.576z"/>
						<path class="st0" d="m1402.1 1116.8c-2.432 4.881-1.57 3.198-4.064 7.915l57.651 30.078c2.804-5.311 1.851-3.459 4.477-8.719l-58.064-29.274z"/>
				<path class="st1" d="m1628 879.98c1.841-29.032-39.6-30.595-41.371-2.65-1.761 27.807 39.528 31.674 41.371 2.65z"/>
				<path class="st1" d="m1537.3 920.67c0.228-1.624 0.086-0.411 1.052-8.867 46.795-0.369 51.942-68.329 4.794-74.82l0.114-8.93c60.479 6.044 52.936 94.362-5.96 92.617z"/>
				<path class="st1" d="m1585.9 877.28c-1.459 21.077-35.086 26.387-56.701 23.472 1.858-16.101 2.867-38.422 3.461-53.988 29.904-0.177 54.272 13.406 53.24 30.518v-2e-3z"/>
					<path class="st1" d="m1469.9 856.07c-0.233 6.294-0.13 4.198-0.434 8.904l64.922 3.672c0.323-5.062 0.219-2.965 0.478-9.793l-64.966-2.783z"/>
					<path class="st1" d="m1468.9 874.64c-0.233 3.737-0.071 1.685-0.716 8.88l64.79 5.533c0.693-7.787 0.526-5.637 0.786-9.772l-64.86-4.641z"/>
					<path class="st2" d="m1611.6 966.66c-14.974-22.583-49.453 0.783-34.676 24.346 15.372 24.488 50.213-1.013 34.676-24.346z"/>
					<path class="st2" d="m1519.4 1011.7c0.998-3.686 1.419-5.168 2.24-8.642 46.357 5.712 60.42-61.051 14.412-73.564l1.238-8.843c58.743 13.636 41.056 100.48-17.89 91.049z"/>
					<path class="st2" d="m1573.3 975c-3.034 15.814-28.646 24.219-59.303 15.922 4.871-19.945 8.424-41.032 10.419-53.065 21.937 2.715 52.84 16.521 48.884 37.144v-1e-3z"/>
						<path class="st2" d="m1461 939c-0.6 3.651-0.237 1.647-1.604 8.751l63.903 12.032c1.457-7.599 1.089-5.549 1.765-9.641l-64.064-11.142z"/>
						<polygon class="st2" points="1457.6 957.24 1455.7 965.94 1519.2 979.82 1521.3 970.24"/>
					<path class="st3" d="m1587.1 1067c-11.546-24.395-49.306-5.761-37.543 19.629 12.137 26.198 49.693 5.763 37.543-19.629z"/>
					<path class="st3" d="m1489.8 1099.7l3.377-8.265c44.936 11.67 67.515-52.806 23.876-71.058l2.332-8.619c57.776 21.716 26.027 104.5-29.585 87.942z"/>
					<path class="st3" d="m1548 1070.3c-5.316 15.489-31.885 20.144-60.922 8.035 7.441-19.564 12.07-33.864 17.24-51.25 29.549 7.665 48.919 27.113 43.681 43.217l1e-3 -2e-3z"/>
						<polygon class="st3" points="1441.4 1020 1438.7 1028.4 1500.5 1048.7 1503.5 1039.4"/>
						<polygon class="st3" points="1435.6 1037.6 1432.7 1046 1493.8 1068 1497.1 1058.8"/>
					<path class="st4" d="m1548.5 1180c5.239-10.561 1.444-23.729-9.371-28.647-16.519-7.511-34.599 8.685-29.11 26.508 5.446 17.95 29.585 19.988 38.481 2.139z"/>
					<path class="st4" d="m1449 1183l4.357-7.794c43.729 17.627 73.679-43.678 32.981-67.319 0.676-1.544 0.226-0.448 3.413-8.25 53.34 28.407 14.074 107.89-40.751 83.363z"/>
					<path class="st4" d="m1510.6 1161.5c-7.64 15.386-35.516 15.068-61.404 0.055 8.363-15.851 15.704-30.175 23.755-48.582 29.968 12.13 44.738 34.571 37.649 48.528v-1e-3z"/>
						<polygon class="st4" points="1411.4 1097.7 1407.6 1105.7 1466.3 1133.9 1470.4 1125"/>
						<path class="st4" d="m1403.4 1114.4c-2.452 4.942-2.992 6.078-4.002 7.947l57.78 29.831c1.136-2.112 1.835-3.568 4.411-8.753l-58.189-29.025z"/>
				<path class="st0" d="m1496.5 1259.6c-4.658-26.612-45.957-18.619-41.387 8.925 4.84 28.537 46.353 18.693 41.387-8.925z"/>
				<path class="st0" d="m1394 1265.2l5.433-7.087c40.462 23.317 79.315-32.779 41.934-62.145l4.544-7.687c48.502 35.315-0.994 108.69-51.911 76.919z"/>
				<path class="st0" d="m1458 1252.4c-11.987 17.467-43.688 4.99-60.87-8.454 10.735-14.716 18.708-26.328 30.256-44.831 18.791 10.843 42.315 35.531 30.613 53.286l1e-3 -1e-3z"/>
					<polygon class="st0" points="1368.6 1175.5 1363.7 1182.9 1417.9 1218.9 1423.3 1210.7"/>
					<polygon class="st0" points="1358.3 1191 1353.2 1198.3 1406.3 1235.8 1411.9 1227.7"/>
					<path class="st0" d="m1414.4 1365.8c18.576-1.152 28.105-25.459 13.478-37.653-13.59-11.329-35.475-1.298-35.076 17.834 0.333 11.568 9.817 20.641 21.598 19.819z"/>
					<path class="st0" d="m1332.7 1334.8c1.174-1.146 0.307-0.262 6.264-6.364 37.153 28.274 83.184-22.01 49.616-56.204 2.714-3.37 1.462-1.772 5.498-7.036 44.627 42.316-15.825 107.09-61.378 69.604z"/>
					<path class="st0" d="m1397.7 1330.3c-14.01 15.784-43.907-0.632-59.204-16.168 20.486-22.011 31.983-35.755 35.766-40.581 17.414 13.314 37.405 41.061 23.438 56.749z"/>
						<path class="st0" d="m1319 1242.5c-5.795 6.859-4.494 5.339-5.768 6.788l49.079 42.657c1.289-1.468 0.178-0.167 6.351-7.468l-49.662-41.977z"/>
						<path class="st0" d="m1306.8 1256.5c-3.625 4.094-2.347 2.684-5.987 6.595l47.833 44.05c3.997-4.302 2.602-2.763 6.589-7.258l-48.435-43.387z"/>
					<path class="st0" d="m1352 1434.2c11.65-6.672 15.368-22.596 6.027-32.688-12.112-13.084-35.279-5.55-37.083 13.167-1.614 16.844 15.752 28.166 31.056 19.521z"/>
					<path class="st0" d="m1262.8 1395.9l7.082-5.44c33.061 32.725 84.785-11.815 56.398-49.398l6.39-6.239c38.881 47.717-30.194 103.27-69.87 61.077z"/>
					<path class="st0" d="m1327.9 1399.8c-15.459 13.986-43.142-5.854-56.669-23.701 15.219-12.255 26.538-22.401 40.722-35.603 15.103 14.997 31.936 45.105 15.947 59.304z"/>
						<path class="st0" d="m1261.1 1302.7c-1.271 1.186-0.183 0.21-6.642 5.936l43.181 48.619c7.143-6.337 5.917-5.24 7.307-6.535l-43.846-48.02z"/>
						<polygon class="st0" points="1247.2 1315 1240.4 1320.7 1282.2 1370.6 1289.7 1364.2"/>
					<path class="st0" d="m1282.6 1481c5.649-26.744-35.591-34.183-41.661-7.341-6.614 27.994 35.845 34.944 41.661 7.341z"/>
					<path class="st0" d="m1185.7 1447.5l7.686-4.545c28.802 37.041 85.669-0.693 62.346-41.635l7.091-5.428c31.821 51.479-42.621 99.524-77.123 51.608z"/>
					<path class="st0" d="m1249.7 1459.8c-17.729 11.646-42.193-11.661-53.131-30.803 16.395-10.236 29.14-18.541 44.952-30.077 19.192 24.742 21.775 52.122 8.178 60.881l1e-3 -1e-3z"/>
						<polygon class="st0" points="1196 1354.8 1188.7 1359.9 1225.2 1413.6 1233.3 1408.1"/>
						<path class="st0" d="m1180.6 1365.2c-7.452 4.91-5.853 3.873-7.452 4.872l34.984 54.813c1.669-1.045 0.212-0.098 8.207-5.361l-35.739-54.324z"/>
				<path class="st1" d="m1465.4 1279.4c15.171 10.776 36.42-3.824 32.969-22.66-5.183-26.84-45.948-18.076-41.384 9.078 0.892 5.295 3.748 10.267 8.415 13.582z"/>
				<path class="st1" d="m1395.9 1262.8l5.428-7.091c40.117 22.85 79.877-32.612 41.635-62.346l4.545-7.687c49.621 35.73-1.729 107.96-51.608 77.124z"/>
				<path class="st1" d="m1459.8 1249.7c-11.378 17.663-43.736 5.121-60.881-8.178 12.117-16.607 20.445-29.523 30.077-44.952 18.592 10.622 42.523 35.29 30.803 53.131l1e-3 -1e-3z"/>
					<path class="st1" d="m1370.1 1173.2c-0.972 1.557-0.063 0.153-4.872 7.452l54.324 35.739c5.301-8.052 4.297-6.507 5.361-8.207l-54.813-34.984z"/>
					<polygon class="st1" points="1359.9 1188.7 1354.8 1196 1408.1 1233.3 1413.6 1225.2"/>
					<path class="st2" d="m1431.6 1355.7c15.981-18.155-4.215-42.877-24.611-32.428-7.508 3.847-12.32 11.58-11.975 20.332 0.58 18.713 23.356 27.009 36.586 12.096z"/>
					<path class="st2" d="m1334.8 1332.7l6.238-6.389c37.43 28.27 82.769-22.687 49.398-56.398l5.44-7.082c44.691 42.021-15.206 107.25-61.076 69.869z"/>
					<path class="st2" d="m1399.8 1327.9c-12.33 13.884-40.03 3.462-59.305-15.946 4.998-5.369 19.098-20.225 35.603-40.722 25.723 19.5 34.219 45.045 23.702 56.669v-1e-3z"/>
						<polygon class="st2" points="1320.7 1240.4 1315 1247.2 1364.2 1289.7 1370.6 1282.2"/>
						<path class="st2" d="m1308.6 1254.5c-5.725 6.458-4.741 5.362-5.936 6.642l48.02 43.846c1.252-1.345 0.284-0.261 6.535-7.307l-48.619-43.181z"/>
					<path class="st3" d="m1358.2 1429.3c21.84-19.503-6.664-49.639-27.428-31.084-21 18.474 5.606 50.284 27.428 31.084z"/>
					<path class="st3" d="m1265.2 1394c5.17-3.963 3.554-2.693 7.036-5.498 33.56 32.941 84.7-12.176 56.204-49.616 6.127-5.983 5.156-5.028 6.364-6.264 38.87 47.238-29.405 103.77-69.604 61.378z"/>
					<path class="st3" d="m1330.3 1397.7c-15.727 14.001-43.5-6.109-56.75-23.437 12.546-9.834 30.131-26.041 40.581-35.766 15.706 15.465 31.871 45.265 16.169 59.203z"/>
						<path class="st3" d="m1263.1 1300.8c-3.996 3.718-2.595 2.445-6.595 5.987l43.387 48.435c4.494-3.986 2.95-2.587 7.258-6.589l-44.05-47.833z"/>
						<path class="st3" d="m1249.3 1313.2c-1.404 1.234-0.069 0.091-6.788 5.768l41.977 49.662c7.43-6.282 5.948-5.016 7.468-6.351l-42.657-49.079z"/>
					<path class="st4" d="m1259.6 1496.5c18.835 3.386 33.409-17.868 22.525-33.054-10.656-14.868-34.464-9.438-38.446 8.441-2.641 12.122 5.083 22.716 15.921 24.613z"/>
					<path class="st4" d="m1188.3 1445.9l7.687-4.544c28.5 36.274 85.902-0.712 62.145-41.934l7.087-5.433c32.466 52.032-42.861 98.689-76.919 51.911z"/>
					<path class="st4" d="m1252.4 1458c-17.676 11.649-42.333-11.63-53.286-30.613 16.855-10.52 28.494-18.34 44.83-30.257 18.931 24.195 22.237 51.411 8.455 60.87h1e-3z"/>
						<polygon class="st4" points="1198.3 1353.2 1191 1358.3 1227.7 1411.9 1235.8 1406.3"/>
						<polygon class="st4" points="1182.9 1363.7 1175.5 1368.6 1210.7 1423.3 1218.9 1417.9"/>
				<path class="st0" d="m1180 1548.5c26.375-13.145 6.548-49.594-18.223-37.235-25.44 12.631-7.465 49.981 18.223 37.235z"/>
				<path class="st0" d="m1099.7 1489.8c7.819-3.194 6.723-2.745 8.25-3.413 23.464 40.388 85.089 11.094 67.319-32.981l7.794-4.357c24.507 54.771-55.307 93.429-83.363 40.751z"/>
				<path class="st0" d="m1161.5 1510.5c-18.816 9.557-40.303-17.326-48.528-37.649 17.28-7.556 31.77-14.886 48.581-23.755 14.904 25.696 15.416 53.723-0.054 61.404h1e-3z"/>
					<path class="st0" d="m1122.3 1399.3c-1.854 1.002-2.945 1.52-7.947 4.002l29.025 58.189c5.148-2.558 6.635-3.271 8.753-4.411l-29.831-57.78z"/>
					<polygon class="st0" points="1105.7 1407.6 1097.7 1411.4 1125 1470.4 1133.9 1466.3"/>
					<path class="st0" d="m1083.8 1588c27.644-9.362 13.293-48.275-13.216-39.292-26.028 8.465-15.035 48.499 13.216 39.292z"/>
					<path class="st0" d="m1011.7 1519.4l8.619-2.332c17.991 43.008 83.007 22.126 71.058-23.876l8.266-3.377c17.374 58.358-67.142 84.921-87.943 29.585z"/>
					<path class="st0" d="m1070.3 1548c-20.189 6.567-37.749-22.596-43.217-43.68 20.563-6.115 34.59-10.904 51.25-17.241 8.261 19.808 12.172 53.986-8.034 60.922l1e-3 -1e-3z"/>
						<polygon class="st0" points="1046 1432.6 1037.6 1435.6 1058.8 1497.1 1068 1493.8"/>
						<polygon class="st0" points="1028.4 1438.7 1020 1441.4 1039.4 1503.5 1048.7 1500.5"/>
					<path class="st0" d="m997.21 1605.6c15.379-22.367-19.277-45.317-35.629-22.844-16.887 23.307 19.631 46.13 35.629 22.844z"/>
					<path class="st0" d="m920.67 1537.3l8.843-1.238c12.123 44.558 79.466 33.462 73.564-14.412 3.46-0.818 4.949-1.24 8.643-2.24 9.762 61.027-77.77 75.09-91.05 17.89z"/>
					<path class="st0" d="m975.01 1573.2c-20.773 3.984-34.469-27.273-37.144-48.884 17.41-2.886 35.569-6.146 53.065-10.419 7.406 27.366 1.699 55.924-15.922 59.303h1e-3z"/>
						<polygon class="st0" points="965.94 1455.7 957.25 1457.6 970.24 1521.3 979.82 1519.2"/>
						<path class="st0" d="m947.75 1459.4c-7.104 1.367-4.982 0.984-8.751 1.604l11.143 64.064c3.99-0.66 1.831-0.268 9.641-1.765l-12.033-63.903z"/>
					<path class="st0" d="m888.47 1625.8c16.886-8.098 15.324-31.974-2.848-38.091-7.961-2.717-16.819-0.546-22.859 5.782-16.012 17.038 3.891 42.666 25.707 32.309z"/>
					<path class="st0" d="m828.05 1543.2l8.93-0.114c6.385 46.369 74.449 42.414 74.82-4.793 8.641-0.987 7.209-0.82 8.867-1.052 1.795 60.583-86.699 65.176-92.617 5.959z"/>
					<path class="st0" d="m877.29 1585.9c-21.047 1.269-30.649-31.396-30.518-53.24 15.163-0.578 38.578-1.639 53.988-3.461 2.915 21.611-2.395 55.242-23.472 56.701h2e-3z"/>
						<path class="st0" d="m883.52 1468.2c-7.159 0.642-5.078 0.48-8.88 0.716l4.641 64.86c4.061-0.257 1.872-0.083 9.772-0.786l-5.533-64.79z"/>
						<path class="st0" d="m864.98 1469.5c-4.61 0.297-2.594 0.2-8.903 0.434l2.783 64.966c6.936-0.262 4.598-0.148 9.793-0.478l-3.673-64.922z"/>
				<path class="st1" d="m1166.4 1548.3c17.773 5.827 35.702-12.897 26.758-29.756-8.35-15.739-32.627-14.41-39.238 3.232-4.063 10.86 1.269 22.854 12.48 26.524z"/>
				<path class="st1" d="m1102.5 1488.6c4.971-2.037 3.187-1.28 8.221-3.483 23.527 40.104 85.34 11.235 67.187-33.248 4.672-2.611 5.913-3.284 7.771-4.397 24.849 54.821-55.069 93.241-83.179 41.128z"/>
				<path class="st1" d="m1164.4 1509.1c-14.139 7.191-36.521-7.743-48.676-37.411 16.825-7.357 34.308-16.47 48.484-23.958 15.262 26.049 15.424 53.762 0.191 61.37l1e-3 -1e-3z"/>
					<path class="st1" d="m1124.8 1398.1c-4.828 2.554-3.138 1.684-7.915 4.064l29.274 58.064c5.383-2.688 3.52-1.733 8.719-4.477l-30.078-57.651z"/>
					<path class="st1" d="m1108.2 1406.4c-2.139 1.067-0.59 0.326-8.043 3.801l27.576 58.889c8.002-3.735 6.498-3.016 8.86-4.19l-28.393-58.5z"/>
					<path class="st2" d="m1099.7 1576c12.319-24.11-25.432-42.611-38.406-17.892-13.502 25.593 25.636 42.933 38.406 17.892z"/>
					<path class="st2" d="m1014.7 1518.6l8.619-2.332c18.13 42.943 83.023 21.717 70.937-24.234l8.266-3.377c17.552 57.86-66.643 85.562-87.822 29.943z"/>
					<path class="st2" d="m1073.4 1547c-20.128 6.79-37.788-22.221-43.404-43.493 19.264-5.755 32.923-10.511 51.178-17.452 12.075 28.607 7.922 55.426-7.776 60.946l2e-3 -1e-3z"/>
						<polygon class="st2" points="1048.6 1431.7 1040.2 1434.7 1061.6 1496.1 1070.9 1492.8"/>
						<polygon class="st2" points="1031 1437.8 1022.6 1440.6 1042.2 1502.6 1051.6 1499.5"/>
					<path class="st3" d="m994.62 1610.7c16.279-10.9 10.095-34.076-7.918-37.368-8.091-1.497-16.773 1.588-21.889 8.849-13.799 19.44 10.131 41.636 29.807 28.519z"/>
					<path class="st3" d="m923.7 1536.8l8.843-1.237c12.411 44.875 79.577 32.866 73.507-14.713 0.584-0.129 8.046-2.158 8.624-2.314 9.976 60.41-77.318 75.934-90.974 18.264z"/>
					<path class="st3" d="m978.2 1572.6c-17.024 3.27-33.581-19.286-37.361-48.764 18.975-3.143 34.321-6.077 53.019-10.641 7.38 26.821 2.201 55.963-15.659 59.406l1e-3 -1e-3z"/>
						<polygon class="st3" points="968.62 1455.1 959.93 1457 973.2 1520.7 982.78 1518.6"/>
						<polygon class="st3" points="950.45 1458.9 941.71 1460.6 953.13 1524.6 962.75 1522.7"/>
					<path class="st4" d="m898.49 1620.5c18.038-20.256-13.446-47.529-32.459-27.117-19.535 20.876 13.605 48.277 32.459 27.117z"/>
					<path class="st4" d="m831.11 1543.2l8.93-0.113c6.612 46.774 74.639 41.877 74.8-5.102 5.448-0.626 3.544-0.385 8.857-1.129 1.921 59.255-86.288 66.837-92.587 6.344z"/>
					<path class="st4" d="m880.53 1585.7c-21.085 1.342-30.784-31.347-30.745-53.149 17.053-0.649 36.074-1.639 53.97-3.689 4.148 29.777-6.272 55.76-23.226 56.838h1e-3z"/>
						<polygon class="st4" points="886.26 1467.9 877.39 1468.7 882.3 1533.5 892.07 1532.7"/>
						<path class="st4" d="m867.72 1469.3c-5.229 0.335-6.712 0.456-8.898 0.507l3.057 64.954c2.354-0.06 3.78-0.174 9.788-0.555l-3.947-64.906z"/>
				<path class="st0" d="m757.61 1620.5c18.849 21.156 51.999-6.236 32.459-27.117-19-20.397-50.505 6.853-32.459 27.117z"/>
				<path class="st0" d="m732.4 1536.8c5.429 0.76 3.526 0.516 8.857 1.129 0.162 46.686 68.128 52.314 74.8 5.102l8.93 0.113c-6.235 59.878-94.506 52.887-92.587-6.344z"/>
				<path class="st0" d="m775.58 1585.7c-15.96-1.015-27.63-25.23-23.227-56.838 14.797 1.9 38.998 3.119 53.97 3.688 0.048 28.483-12.792 54.292-30.744 53.149l1e-3 1e-3z"/>
					<path class="st0" d="m797.28 1469.8c-2.177-0.051-3.631-0.169-8.898-0.507l-3.947 64.906c5.701 0.362 7.368 0.494 9.789 0.555l3.056-64.954z"/>
					<polygon class="st0" points="778.71 1468.7 769.84 1467.9 764.03 1532.7 773.8 1533.5"/>
					<path class="st0" d="m669.6 1614c28.897 5.563 35.39-35.415 8.154-40.645-28.555-5.188-35.765 35.602-8.154 40.645z"/>
					<path class="st0" d="m641.43 1518.6c0.613 0.166 8.005 2.178 8.623 2.314-5.922 46.441 60.931 60.191 73.507 14.713l8.843 1.237c-14.01 59.172-100.6 40.05-90.973-18.264z"/>
					<path class="st0" d="m677.91 1572.6c-15.379-2.963-24.273-28.111-15.66-59.405 18.708 4.566 34.061 7.5 53.019 10.64-3.775 29.46-20.334 52.035-37.361 48.765h2e-3z"/>
						<polygon class="st0" points="714.39 1460.6 705.65 1458.9 693.35 1522.7 702.98 1524.6"/>
						<polygon class="st0" points="696.17 1457 687.48 1455.1 673.32 1518.6 682.9 1520.7"/>
					<path class="st0" d="m556.36 1576c8.681 17.023 34.455 15.839 39.976-1.99 5.415-17.486-13.261-33.217-29.967-25.562-11.155 5.124-15.076 17.636-10.009 27.552z"/>
					<path class="st0" d="m553.61 1488.6l8.266 3.377c-12.12 46.093 52.842 67.102 70.937 24.234l8.619 2.332c-21.428 56.28-105.09 26.991-87.822-29.943z"/>
					<path class="st0" d="m582.73 1547c-16.603-5.839-19.149-34.003-7.776-60.946 18.393 6.993 32.045 11.737 51.179 17.452-5.472 20.728-23.169 50.318-43.404 43.494h1e-3z"/>
						<polygon class="st0" points="633.53 1440.6 625.07 1437.8 604.54 1499.5 613.86 1502.6"/>
						<polygon class="st0" points="615.93 1434.7 607.54 1431.7 585.22 1492.8 594.46 1496.1"/>
					<path class="st0" d="m461.81 1534.5c5.973 17.644 31.926 20.532 39.892 3.213 7.37-16.026-7.992-34.607-26.38-29.226-11.085 3.336-17.384 14.851-13.512 26.013z"/>
					<path class="st0" d="m470.43 1447.5c1.82 1.09 2.91 1.679 7.771 4.397-17.907 43.888 43.506 73.619 67.187 33.248 4.912 2.149 3.143 1.402 8.221 3.483-28.489 52.814-107.85 13.298-83.179-41.128z"/>
					<path class="st0" d="m491.72 1509.1c-18.874-9.426-10.864-42.501 0.191-61.37 14.22 7.51 31.437 16.506 48.484 23.957-11.671 28.484-33.884 44.935-48.676 37.411l1e-3 2e-3z"/>
						<path class="st0" d="m555.95 1410.2c-7.325-3.415-5.872-2.718-8.043-3.801l-28.393 58.5c2.317 1.152 0.733 0.396 8.86 4.19l27.576-58.889z"/>
						<path class="st0" d="m539.25 1402.1c-4.881-2.432-3.198-1.57-7.915-4.064l-30.078 57.651c5.203 2.746 3.333 1.788 8.719 4.477l29.274-58.064z"/>
				<path class="st1" d="m776.12 1628c28.845 1.829 30.627-39.598 2.65-41.37-27.813-1.764-31.673 39.529-2.65 41.37z"/>
				<path class="st1" d="m735.43 1537.3c1.669 0.234 0.394 0.084 8.867 1.052 0.368 46.669 68.317 52.033 74.82 4.794l8.93 0.114c-5.905 59.089-94.395 54.061-92.617-5.96z"/>
				<path class="st1" d="m778.82 1585.9c-21.078-1.46-26.389-35.094-23.472-56.701 16.174 1.851 38.126 2.855 53.988 3.46 0.131 21.872-9.485 54.509-30.517 53.24l1e-3 1e-3z"/>
					<path class="st1" d="m800.03 1469.9c-6.293-0.233-4.198-0.13-8.904-0.434l-3.672 64.922c5.086 0.323 2.858 0.215 9.793 0.478l2.783-64.966z"/>
					<path class="st1" d="m781.46 1468.9c-3.74-0.233-1.67-0.07-8.88-0.716l-5.533 64.79c7.846 0.698 5.587 0.521 9.772 0.786l4.641-64.86z"/>
					<path class="st2" d="m658.89 1605.6c16.052 23.366 52.431 0.346 35.628-22.844-16.477-22.645-50.951 0.558-35.628 22.844z"/>
					<path class="st2" d="m644.38 1519.4c3.686 0.998 5.174 1.42 8.642 2.24-5.77 46.827 61.225 59.781 73.564 14.412l8.843 1.238c-13.797 59.433-100.28 39.861-91.049-17.89z"/>
					<path class="st2" d="m681.1 1573.3c-15.887-3.047-24.186-28.768-15.922-59.303 18.083 4.417 36.407 7.657 53.065 10.419-2.714 21.919-16.507 52.843-37.144 48.884h1e-3z"/>
						<path class="st2" d="m717.1 1461c-3.632-0.597-1.638-0.235-8.751-1.604l-12.032 63.903c7.749 1.486 5.535 1.086 9.641 1.765l11.142-64.064z"/>
						<polygon class="st2" points="698.86 1457.6 690.16 1455.7 676.28 1519.2 685.86 1521.3"/>
					<path class="st3" d="m559.58 1577.1c8.763 17.007 34.497 15.738 39.968-2.168 5.203-17.029-13.01-33.334-30.077-25.426-10.703 4.958-15.208 17.275-9.891 27.594z"/>
					<path class="st3" d="m556.44 1489.8l8.265 3.377c-11.962 46.064 53.108 66.794 71.058 23.876l8.619 2.332c-21.696 57.721-104.46 25.882-87.942-29.585z"/>
					<path class="st3" d="m585.8 1548c-20.134-6.91-16.486-40.657-8.035-60.922 18.765 7.137 33.372 11.923 51.25 17.24-5.476 21.112-23.045 50.241-43.217 43.681l2e-3 1e-3z"/>
						<polygon class="st3" points="636.14 1441.4 627.68 1438.7 607.42 1500.5 616.74 1503.5"/>
						<polygon class="st3" points="618.52 1435.6 610.13 1432.7 588.07 1493.8 597.32 1497.1"/>
					<path class="st4" d="m476.08 1548.5c10.583 5.251 23.738 1.425 28.647-9.37 7.509-16.515-8.683-34.6-26.508-29.11-18.031 5.47-19.919 29.619-2.139 38.48z"/>
					<path class="st4" d="m473.08 1449l7.794 4.357c-17.671 43.837 43.776 73.51 67.319 32.981 1.564 0.684 0.524 0.257 8.25 3.413-28.367 53.266-107.9 14.094-83.363-40.751z"/>
					<path class="st4" d="m494.63 1510.6c-15.377-7.635-15.078-35.502-0.055-61.404 16.161 8.526 30.864 16.005 48.582 23.755-12.038 29.745-34.431 44.81-48.528 37.649h1e-3z"/>
						<polygon class="st4" points="558.44 1411.4 550.38 1407.6 522.24 1466.3 531.12 1470.4"/>
						<path class="st4" d="m541.71 1403.4c-4.864-2.414-6.065-2.985-7.947-4.002l-29.831 57.78c2.121 1.141 3.604 1.853 8.753 4.411l29.025-58.189z"/>
				<path class="st0" d="m370.69 1479.1c5.717 27.422 47.893 21.156 41.715-7.199-6.086-27.328-47.319-19.194-41.715 7.199z"/>
				<path class="st0" d="m390.88 1394l7.087 5.433c-23.516 40.807 33.035 78.987 62.145 41.934l7.687 4.544c-35.501 48.758-108.28-1.65-76.919-51.911z"/>
				<path class="st0" d="m403.7 1458c-17.467-11.987-4.991-43.689 8.454-60.87 17.365 12.667 29.207 20.505 44.831 30.256-10.842 18.79-35.53 42.315-53.286 30.613l1e-3 1e-3z"/>
					<polygon class="st0" points="480.6 1368.6 473.17 1363.7 437.2 1417.9 445.38 1423.3"/>
					<polygon class="st0" points="465.14 1358.3 457.82 1353.2 420.31 1406.3 428.36 1411.9"/>
					<path class="st0" d="m305.42 1433.8c18.401 6.24 33.369-12.472 24.964-28.911-4.077-7.994-11.784-12.279-20.245-12.102-23.761 0.686-27.098 33.402-4.719 41.013z"/>
					<path class="st0" d="m321.28 1332.7c1.17 1.199 0.252 0.297 6.364 6.264-28.749 37.776 22.746 82.461 56.204 49.616 3.36 2.706 1.787 1.474 7.036 5.498-40.732 42.956-108.37-14.265-69.604-61.378z"/>
					<path class="st0" d="m325.8 1397.7c-15.784-14.01 0.632-43.907 16.168-59.204 9.301 8.657 27.685 25.657 40.581 35.766-13.393 17.514-41.107 37.366-56.75 23.438h1e-3z"/>
						<path class="st0" d="m413.58 1319c-6.837-5.776-5.35-4.504-6.788-5.768l-42.657 49.079c1.463 1.284 0.173 0.183 7.468 6.351l41.977-49.662z"/>
						<path class="st0" d="m399.55 1306.8c-4.006-3.547-2.589-2.259-6.596-5.987l-44.05 47.833c4.4 4.087 2.868 2.695 7.258 6.589l43.388-48.435z"/>
					<path class="st0" d="m221.88 1352c10.769 18.806 38.562 12.779 39.221-8.469 0.477-12.105-8.852-21.542-19.7-22.587-16.849-1.614-28.163 15.758-19.521 31.056z"/>
					<path class="st0" d="m260.2 1262.8l5.44 7.082c-33.433 33.776 12.026 84.626 49.398 56.398l6.239 6.39c-46.658 38.018-104.95-28.613-61.077-69.87z"/>
					<path class="st0" d="m256.28 1327.9c-14.061-15.542 6.31-43.488 23.701-56.669 12.251 15.214 22.4 26.538 35.603 40.722-15 15.104-45.105 31.936-59.304 15.947z"/>
						<path class="st0" d="m353.45 1261.1c-1.185-1.27-0.208-0.18-5.936-6.642l-48.619 43.181c6.37 7.18 5.278 5.957 6.535 7.307l48.02-43.846z"/>
						<polygon class="st0" points="341.11 1247.2 335.36 1240.4 285.52 1282.2 291.85 1289.7"/>
					<path class="st0" d="m167.43 1279.4c16.24 10.845 35.365-3.611 31.522-21.573-1.782-8.22-7.944-14.905-16.531-16.847-23.064-5.449-34.744 25.303-14.991 38.42z"/>
					<path class="st0" d="m208.59 1185.7l4.544 7.686c-37.282 28.99 0.708 85.661 41.635 62.346l5.428 7.091c-52.155 32.239-99.662-42.521-51.607-77.123z"/>
					<path class="st0" d="m196.33 1249.7c-11.646-17.729 11.661-42.193 30.803-53.131 10.296 16.492 18.575 29.185 30.077 44.952-25.498 19.779-52.406 21.334-60.881 8.178l1e-3 1e-3z"/>
						<polygon class="st0" points="301.31 1196 296.24 1188.7 242.46 1225.2 248.04 1233.3"/>
						<path class="st0" d="m290.88 1180.6c-4.911-7.454-3.871-5.849-4.872-7.452l-54.813 34.984c1.038 1.658 0.111 0.232 5.361 8.207l54.324-35.739z"/>
				<path class="st1" d="m376.67 1465.4c-4.998 7.037-4.699 16.161 0.056 23.28 13.108 19.74 43.872 8.083 38.42-14.991-4.133-18.273-28.047-22.973-38.476-8.289z"/>
				<path class="st1" d="m393.31 1395.9l7.091 5.428c-23.461 41.188 33.548 78.674 62.346 41.635l7.687 4.545c-35.942 49.915-107.59-2.329-77.124-51.608z"/>
				<path class="st1" d="m406.41 1459.8c-17.665-11.38-5.118-43.738 8.178-60.881 15.825 11.544 28.555 19.84 44.952 30.077-10.611 18.574-35.283 42.528-53.131 30.803l1e-3 1e-3z"/>
					<path class="st1" d="m482.91 1370.1c-1.55-0.968-0.149-0.06-7.452-4.872l-35.739 54.324c8.097 5.33 6.499 4.292 8.207 5.361l34.984-54.813z"/>
					<polygon class="st1" points="467.4 1359.9 460.08 1354.8 422.79 1408.1 430.85 1413.6"/>
					<path class="st2" d="m304.06 1434.2c15.271 8.628 32.672-2.649 31.056-19.521-1.037-10.764-10.401-20.18-22.587-19.7-21.245 0.659-27.28 28.45-8.469 39.221z"/>
					<path class="st2" d="m323.44 1334.8l6.389 6.238c-28.626 37.902 23.209 82.253 56.398 49.398l7.082 5.44c-41.082 43.693-107.82-14.498-69.869-61.076z"/>
					<path class="st2" d="m328.23 1399.8c-13.872-12.319-3.481-40.012 15.946-59.305 14.182 13.202 25.505 23.35 40.722 35.603-19.426 25.63-44.998 34.26-56.669 23.702h1e-3z"/>
						<polygon class="st2" points="415.68 1320.7 408.88 1315 366.43 1364.2 373.91 1370.6"/>
						<path class="st2" d="m401.61 1308.6c-6.537-5.795-5.332-4.713-6.642-5.936l-43.846 48.02c1.345 1.253 0.259 0.282 7.307 6.535l43.181-48.619z"/>
					<path class="st3" d="m226.78 1358.2c19.502 21.84 49.639-6.664 31.084-27.428-18.489-21.019-50.271 5.621-31.084 27.428z"/>
					<path class="st3" d="m262.06 1265.2c3.974 5.185 2.69 3.55 5.498 7.036-33.291 33.916 12.288 84.616 49.616 56.204 6.059 6.205 5.055 5.183 6.264 6.364-46.58 38.328-104.7-28.519-61.378-69.604z"/>
					<path class="st3" d="m258.43 1330.3c-13.999-15.724 6.102-43.495 23.437-56.75 9.814 12.52 25.996 30.083 35.766 40.581-15.466 15.706-45.265 31.871-59.203 16.169z"/>
						<path class="st3" d="m355.32 1263.1c-3.725-4.003-2.445-2.595-5.987-6.595l-48.435 43.387c3.906 4.404 2.49 2.846 6.589 7.258l47.833-44.05z"/>
						<path class="st3" d="m342.91 1249.3c-1.23-1.4-0.099-0.078-5.768-6.788l-49.662 41.977c6.232 7.372 5.026 5.959 6.351 7.468l49.079-42.657z"/>
					<path class="st4" d="m177.02 1285.4c26.436 5.613 34.454-35.646 7.199-41.715-28.303-6.167-34.656 35.99-7.199 41.715z"/>
					<path class="st4" d="m210.15 1188.3l4.544 7.687c-36.465 28.65 0.3 86.14 41.934 62.145l5.433 7.087c-51.296 32.007-100.03-41.887-51.911-76.919z"/>
					<path class="st4" d="m198.11 1252.4c-11.649-17.676 11.63-42.333 30.613-53.286 10.527 16.866 18.344 28.5 30.257 44.83-23.781 18.607-51.231 22.5-60.87 8.455v1e-3z"/>
						<polygon class="st4" points="302.88 1198.3 297.8 1191 244.18 1227.7 249.77 1235.8"/>
						<polygon class="st4" points="292.4 1182.9 287.5 1175.5 232.83 1210.7 238.22 1218.9"/>
				<path class="st0" d="m117.01 1151.4c-10.778 4.9-14.632 18.044-9.37 28.647 13.115 26.315 49.636 6.633 37.235-18.223-5.335-10.745-17.78-15.01-27.865-10.424z"/>
				<path class="st0" d="m166.31 1099.7c3.188 7.805 2.745 6.722 3.413 8.25-40.507 23.533-10.96 85.035 32.981 67.319l4.357 7.794c-56.143 25.121-92.936-55.569-40.751-83.363z"/>
				<path class="st0" d="m145.55 1161.5c-9.549-18.799 17.308-40.296 37.649-48.528 7.695 17.599 15.162 32.293 23.755 48.581-26.41 15.318-53.904 15.051-61.404-0.054v1e-3z"/>
					<path class="st0" d="m256.75 1122.3c-1.006-1.862-1.53-2.965-4.002-7.947l-58.189 29.025c2.46 4.951 3.247 6.591 4.411 8.753l57.78-29.831z"/>
					<polygon class="st0" points="248.46 1105.7 244.7 1097.7 185.69 1125 189.84 1133.9"/>
					<path class="st0" d="m78.957 1096.5c28.455 14.662 44.231-36.783 10.364-40.714-23.389-2.684-31.018 30.073-10.364 40.714z"/>
					<path class="st0" d="m136.72 1011.7l2.332 8.619c-43.56 18.222-21.464 82.835 23.876 71.058l3.378 8.266c-58.944 17.548-83.887-67.531-29.586-87.943z"/>
					<path class="st0" d="m108.07 1070.3c-6.567-20.189 22.593-37.747 43.68-43.217 5.313 17.866 10.088 32.442 17.241 51.25-19.808 8.261-53.986 12.172-60.922-8.034l1e-3 1e-3z"/>
						<polygon class="st0" points="223.45 1046 220.49 1037.6 159.02 1058.8 162.28 1068"/>
						<polygon class="st0" points="217.42 1028.4 214.68 1020 152.61 1039.4 155.64 1048.7"/>
					<path class="st0" d="m44.519 966.66c-10.272 15.427 3.051 37.847 21.7 33.636 17.378-3.924 22.522-27.542 7.171-38.711-9.329-6.76-22.31-4.819-28.871 5.075z"/>
					<path class="st0" d="m118.83 920.67l1.238 8.843c-44.121 12.003-33.023 79.412 14.412 73.564 0.819 3.468 1.24 4.95 2.24 8.643-59.237 9.475-76.094-77.536-17.89-91.05z"/>
					<path class="st0" d="m82.849 975.01c-3.984-20.771 27.27-34.468 48.884-37.144 2.718 16.398 5.881 34.484 10.419 53.065-29.573 8.003-56.149 0.52-59.303-15.922v1e-3z"/>
						<polygon class="st0" points="200.4 965.94 198.52 957.25 134.8 970.24 136.88 979.82"/>
						<path class="st0" d="m196.7 947.75c-1.361-7.073-0.986-4.993-1.604-8.751l-64.064 11.143c0.66 3.99 0.268 1.831 1.765 9.641l63.903-12.033z"/>
					<path class="st0" d="m30.273 888.47c8.098 16.886 31.973 15.323 38.091-2.848 2.716-7.961 0.546-16.819-5.782-22.859-17.038-16.014-42.665 3.892-32.309 25.707z"/>
					<path class="st0" d="m112.87 828.05l0.114 8.93c-46.127 6.352-42.785 74.447 4.794 74.82 0.983 8.599 0.818 7.195 1.052 8.867-60.866 1.803-65.045-86.712-5.96-92.617z"/>
					<path class="st0" d="m70.213 877.29c-1.27-21.047 31.396-30.649 53.24-30.518 0.039 1.033 1.057 33.669 3.461 53.988-28.689 3.87-55.477-5.799-56.701-23.472v2e-3z"/>
						<path class="st0" d="m187.94 883.52c-0.643-7.166-0.479-5.075-0.716-8.88l-64.86 4.641c0.257 4.073 0.085 1.891 0.786 9.772l64.79-5.533z"/>
						<path class="st0" d="m186.62 864.98c-0.297-4.619-0.199-2.567-0.434-8.903l-64.966 2.783c0.261 6.894 0.149 4.62 0.478 9.793l64.922-3.673z"/>
				<path class="st1" d="m118.42 1154.4c-17.375 7.991-14.372 33.938 3.213 39.891 25.483 8.839 38.969-30.561 12.727-40.395-5.017-1.876-10.739-1.887-15.94 0.504z"/>
				<path class="st1" d="m167.46 1102.5c2.079 5.072 1.332 3.305 3.483 8.221-40.444 23.727-10.623 85.09 33.248 67.187 2.614 4.677 3.284 5.913 4.397 7.771-55.559 25.184-93.233-55.073-41.128-83.179z"/>
				<path class="st1" d="m147 1164.4c-7.189-14.136 7.739-36.519 37.411-48.676 7.182 16.425 15.855 33.143 23.958 48.484-18.868 11.054-51.943 19.065-61.37 0.191l1e-3 1e-3z"/>
					<path class="st1" d="m258.03 1124.8c-2.554-4.828-1.684-3.138-4.064-7.915l-58.064 29.274c2.629 5.266 1.665 3.391 4.477 8.719l57.651-30.078z"/>
					<path class="st1" d="m249.66 1108.2c-1.065-2.136-0.337-0.613-3.801-8.043l-58.889 27.576c3.731 7.993 3.02 6.507 4.19 8.86l58.5-28.393z"/>
					<path class="st2" d="m80.091 1099.7c24.118 12.323 42.597-25.439 17.892-38.406-25.494-13.449-43.001 25.602-17.892 38.406z"/>
					<path class="st2" d="m137.52 1014.7l2.332 8.619c-43.591 18.404-21.07 82.853 24.234 70.937l3.377 8.266c-57.11 17.325-86.493-66.289-29.943-87.822z"/>
					<path class="st2" d="m109.11 1073.4c-6.79-20.128 22.221-37.788 43.493-43.404 5.726 19.166 10.469 32.811 17.453 51.178-27.419 11.573-55.199 8.568-60.946-7.776v2e-3z"/>
						<polygon class="st2" points="224.36 1048.6 221.41 1040.2 160.02 1061.6 163.28 1070.9"/>
						<polygon class="st2" points="218.27 1031 215.52 1022.6 153.54 1042.2 156.57 1051.6"/>
					<path class="st3" d="m45.437 994.62c12.876 19.23 41.481 6.787 37.292-16.273-1.095-5.702-4.361-10.426-8.773-13.534-19.44-13.798-41.636 10.131-28.519 29.807z"/>
					<path class="st3" d="m119.26 923.7l1.237 8.843c-45.563 12.601-31.634 79.419 14.713 73.507 0.132 0.599 2.154 8.032 2.314 8.624-59.206 9.778-76.435-77.2-18.264-90.974z"/>
					<path class="st3" d="m83.461 978.2c-3.282-17.09 19.416-33.601 48.764-37.361 3.144 18.979 6.077 34.321 10.641 53.019-23.409 6.444-55.632 3.919-59.406-15.659l1e-3 1e-3z"/>
						<polygon class="st3" points="200.99 968.62 199.09 959.93 135.44 973.2 137.52 982.78"/>
						<polygon class="st3" points="197.22 950.45 195.54 941.71 131.53 953.13 133.37 962.75"/>
					<path class="st4" d="m35.591 898.49c20.23 18.015 47.553-13.423 27.117-32.459-20.875-19.535-48.277 13.605-27.117 32.459z"/>
					<path class="st4" d="m112.91 831.11l0.113 8.93c-46.422 6.563-42.363 74.637 5.102 74.8 0.612 5.325 0.369 3.426 1.129 8.857-60.179 1.95-66.155-86.359-6.344-92.587z"/>
					<path class="st4" d="m70.419 880.53c-1.341-21.087 31.349-30.782 53.149-30.745 0.139 3.653 0.925 29.841 3.689 53.97-30.451 4.24-55.78-6.591-56.838-23.227v2e-3z"/>
						<polygon class="st4" points="188.19 886.26 187.4 877.39 122.56 882.3 123.42 892.07"/>
						<path class="st4" d="m186.79 867.72c-0.334-5.211-0.456-6.706-0.507-8.898l-64.954 3.057c0.06 2.357 0.174 3.788 0.555 9.788l64.906-3.947z"/>
				<path class="st0" d="m35.591 757.61c-21.13 18.827 6.193 52.039 27.117 32.459 20.398-19.001-6.853-50.504-27.117-32.459z"/>
				<path class="st0" d="m119.26 732.4c-0.76 5.428-0.517 3.536-1.129 8.857-47.132 0.163-51.728 68.211-5.102 74.8l-0.113 8.93c-60.22-6.271-53.179-94.515 6.344-92.587z"/>
				<path class="st0" d="m70.418 775.58c1.015-15.959 25.225-27.629 56.838-23.227-1.903 14.816-3.121 39.042-3.688 53.97-29.783 0.052-54.243-13.563-53.149-30.744l-1e-3 1e-3z"/>
					<path class="st0" d="m186.28 797.28c0.051-2.18 0.169-3.629 0.507-8.898l-64.906-3.947c-0.372 5.861-0.495 7.408-0.555 9.788l64.954 3.057z"/>
					<polygon class="st0" points="187.4 778.71 188.19 769.84 123.42 764.03 122.56 773.8"/>
					<path class="st0" d="m42.083 669.6c-5.563 28.897 35.413 35.398 40.645 8.154 5.188-28.555-35.602-35.765-40.645-8.154z"/>
					<path class="st0" d="m137.52 641.43c-0.166 0.613-2.178 8.005-2.314 8.623-46.834-5.973-60.033 60.975-14.713 73.507l-1.237 8.843c-59.382-14.06-40.223-100.63 18.264-90.973z"/>
					<path class="st0" d="m83.459 677.91c2.971-15.422 28.19-24.252 59.405-15.66-4.554 18.654-7.488 33.988-10.64 53.019-29.481-3.779-52.033-20.343-48.765-37.361v2e-3z"/>
						<polygon class="st0" points="195.54 714.39 197.22 705.65 133.37 693.35 131.53 702.98"/>
						<polygon class="st0" points="199.09 696.17 200.99 687.48 137.52 673.32 135.44 682.9"/>
					<path class="st0" d="m80.09 556.36c-17.023 8.681-15.839 34.455 1.99 39.976 17.486 5.415 33.217-13.26 25.562-29.967-5.124-11.155-17.636-15.076-27.552-10.009z"/>
					<path class="st0" d="m167.46 553.61l-3.377 8.266c-44.321-11.654-68.276 52.346-24.234 70.937l-2.332 8.619c-56.818-21.634-26.503-104.94 29.943-87.822z"/>
					<path class="st0" d="m109.11 582.73c5.838-16.603 34.003-19.149 60.946-7.776-6.993 18.393-11.735 32.04-17.452 51.179-20.727-5.472-50.318-23.169-43.494-43.404v1e-3z"/>
						<polygon class="st0" points="215.52 633.53 218.27 625.07 156.57 604.54 153.54 613.86"/>
						<polygon class="st0" points="221.41 615.93 224.36 607.54 163.28 585.22 160.02 594.46"/>
					<path class="st0" d="m109.17 473.01c-12.867 25.972 24.686 43.553 37.157 18.383 12.437-24.957-24.146-44.503-37.157-18.383z"/>
					<path class="st0" d="m208.59 470.43c-1.098 1.833-1.701 2.948-4.397 7.771-43.531-17.762-74.263 43.128-33.248 67.187-2.197 5.022-1.451 3.263-3.483 8.221-53.565-28.894-13.241-107.82 41.128-83.179z"/>
					<path class="st0" d="m146.99 491.72c9.427-18.875 42.502-10.863 61.37 0.191-8.048 15.237-16.772 32.048-23.957 48.484-28.496-11.675-44.931-33.89-37.412-48.676l-1e-3 1e-3z"/>
						<path class="st0" d="m245.86 555.95c3.408-7.311 2.725-5.886 3.801-8.043l-58.499-28.393c-1.15 2.312-0.393 0.725-4.19 8.86l58.888 27.576z"/>
						<path class="st0" d="m253.97 539.25c2.436-4.888 1.569-3.197 4.064-7.915l-57.651-30.078c-2.747 5.205-1.787 3.331-4.477 8.719l58.064 29.274z"/>
				<path class="st1" d="m30.273 767.63c-6.752 14.224 2.367 30.828 17.425 31.371 17.818 0.643 28.793-21.077 16.804-35.566-9.771-11.868-27.736-9.345-34.229 4.195z"/>
				<path class="st1" d="m118.83 735.43c-0.234 1.669-0.085 0.398-1.052 8.867-47.042 0.371-51.425 68.401-4.794 74.82l-0.114 8.93c-59.668-5.963-54.208-94.399 5.96-92.617z"/>
				<path class="st1" d="m70.213 778.82c1.459-21.076 35.086-26.387 56.701-23.472-1.866 16.282-2.857 38.159-3.46 53.988-30.05 0.178-54.268-13.476-53.24-30.518l-1e-3 2e-3z"/>
					<path class="st1" d="m186.18 800.03c0.234-6.328 0.13-4.175 0.434-8.904l-64.922-3.672c-0.322 5.07-0.216 2.873-0.478 9.793l64.966 2.783z"/>
					<path class="st1" d="m187.23 781.46c0.233-3.744 0.07-1.671 0.716-8.88l-64.79-5.533c-0.693 7.796-0.522 5.587-0.786 9.772l64.86 4.641z"/>
					<path class="st2" d="m44.519 689.44c15.103 22.778 49.387-0.888 34.676-24.346-15.372-24.488-50.214 1.012-34.676 24.346z"/>
					<path class="st2" d="m136.72 644.38c-0.998 3.686-1.42 5.174-2.24 8.642-46.822-5.769-59.844 61.208-14.412 73.564l-1.238 8.843c-59.193-13.741-40.481-100.38 17.89-91.049z"/>
					<path class="st2" d="m82.847 681.1c3.049-15.896 28.781-24.182 59.303-15.922-4.406 18.038-7.645 36.333-10.419 53.065-21.927-2.714-52.842-16.512-48.884-37.144v1e-3z"/>
						<path class="st2" d="m195.1 717.1c0.6-3.65 0.237-1.648 1.604-8.751l-63.903-12.032c-1.479 7.711-1.083 5.518-1.765 9.641l64.064 11.142z"/>
						<polygon class="st2" points="198.52 698.85 200.4 690.16 136.88 676.28 134.8 685.86"/>
					<path class="st3" d="m78.956 559.58c-13.894 7.158-16.053 26.41-5.057 35.965 16.749 14.592 42.232-5.396 32.652-26.074-4.959-10.703-17.276-15.208-27.595-9.891z"/>
					<path class="st3" d="m166.31 556.44l-3.377 8.265c-46.069-11.964-66.788 53.111-23.876 71.058l-2.332 8.619c-57.721-21.696-25.881-104.46 29.585-87.942z"/>
					<path class="st3" d="m108.06 585.8c6.91-20.134 40.657-16.486 60.922-8.035-7.196 18.92-11.972 33.534-17.24 51.25-21.083-5.469-50.248-23.026-43.681-43.217l-1e-3 2e-3z"/>
						<polygon class="st3" points="214.67 636.14 217.42 627.68 155.64 607.42 152.61 616.74"/>
						<polygon class="st3" points="220.49 618.52 223.45 610.13 162.27 588.07 159.02 597.32"/>
					<path class="st4" d="m107.64 476.08c-12.843 25.885 24.666 43.536 37.235 18.223 12.333-24.718-24.105-44.568-37.235-18.223z"/>
					<path class="st4" d="m207.06 473.08l-4.357 7.794c-43.485-17.53-73.909 43.544-32.981 67.319-0.67 1.531-0.231 0.46-3.413 8.25-53.723-28.61-13.799-107.77 40.751-83.363z"/>
					<path class="st4" d="m145.55 494.63c7.643-15.393 35.534-15.062 61.404-0.055-8.404 15.929-15.896 30.612-23.755 48.582-29.605-11.982-44.846-34.358-37.649-48.528v1e-3z"/>
						<polygon class="st4" points="244.7 558.44 248.46 550.38 189.84 522.24 185.69 531.12"/>
						<path class="st4" d="m252.75 541.71c2.447-4.931 2.991-6.076 4.002-7.947l-57.78-29.831c-1.144 2.125-1.859 3.617-4.411 8.753l58.189 29.025z"/>
				<path class="st0" d="m159.6 396.48c4.652 26.58 45.966 18.674 41.387-8.925-4.839-28.537-46.352-18.694-41.387 8.925z"/>
				<path class="st0" d="m262.06 390.88l-5.433 7.087c-41.149-23.713-78.64 33.308-41.934 62.145l-4.544 7.687c-46.904-34.151-0.18-109.42 51.911-76.919z"/>
				<path class="st0" d="m198.11 403.7c11.987-17.468 43.688-4.989 60.87 8.454-12.659 17.353-20.506 29.207-30.257 44.831-18.791-10.843-42.315-35.53-30.613-53.286v1e-3z"/>
					<polygon class="st0" points="287.5 480.6 292.4 473.17 238.22 437.2 232.83 445.38"/>
					<polygon class="st0" points="297.8 465.14 302.88 457.82 249.76 420.31 244.18 428.36"/>
					<path class="st0" d="m222.32 305.42c-6.242 18.407 12.477 33.367 28.911 24.964 7.993-4.077 12.278-11.783 12.102-20.245-0.687-23.787-33.414-27.061-41.013-4.719z"/>
					<path class="st0" d="m323.44 321.28c-1.198 1.17-0.306 0.262-6.264 6.364-37.77-28.744-82.47 22.737-49.616 56.204-2.686 3.335-1.506 1.829-5.498 7.036-43.632-41.373 15.097-107.68 61.378-69.604z"/>
					<path class="st0" d="m258.42 325.8c14.01-15.784 43.907 0.632 59.204 16.168-9.135 9.816-25.794 27.86-35.766 40.581-17.514-13.392-37.365-41.107-23.438-56.75v1e-3z"/>
						<path class="st0" d="m337.14 413.58c5.786-6.849 4.501-5.347 5.768-6.788l-49.079-42.657c-1.285 1.463-0.181 0.171-6.351 7.468l49.662 41.977z"/>
						<path class="st0" d="m349.33 399.55c3.625-4.094 2.347-2.684 5.987-6.595l-47.833-44.05c-4.005 4.311-2.594 2.754-6.589 7.258l48.435 43.387z"/>
					<path class="st0" d="m304.06 221.88c-18.79 10.76-12.803 38.561 8.468 39.221 12.103 0.477 21.542-8.85 22.587-19.7 1.615-16.846-15.755-28.165-31.055-19.521z"/>
					<path class="st0" d="m393.31 260.2l-7.081 5.44c-33.776-33.433-84.627 12.026-56.398 49.398l-6.39 6.239c-38.475-47.217 29.214-104.31 69.869-61.077z"/>
					<path class="st0" d="m328.22 256.28c15.484-14.008 43.38 6.167 56.669 23.701-15.214 12.25-26.538 22.4-40.722 35.603-15.104-14.998-31.936-45.105-15.946-59.305l-1e-3 1e-3z"/>
						<path class="st0" d="m394.97 353.45c1.271-1.186 0.174-0.203 6.642-5.936l-43.181-48.619c-7.14 6.335-5.919 5.242-7.307 6.535l43.846 48.02z"/>
						<polygon class="st0" points="408.87 341.11 415.68 335.36 373.91 285.52 366.42 291.85"/>
					<path class="st0" d="m399.33 157.74c-18.821-3.447-33.447 17.783-22.66 32.969 10.584 14.901 34.404 9.719 38.475-8.288 2.655-11.236-4.189-22.436-15.815-24.681z"/>
					<path class="st0" d="m470.43 208.59l-7.686 4.544c-28.691-36.898-85.732 0.584-62.346 41.635l-7.091 5.428c-31.706-51.291 42.323-99.937 77.123-51.607z"/>
					<path class="st0" d="m406.41 196.33c16.409-10.779 40.621 8.906 53.131 30.803-6.084 3.798-23.42 14.37-44.952 30.077-13.426-17.31-25.755-49.558-8.178-60.881l-1e-3 1e-3z"/>
						<polygon class="st0" points="460.08 301.31 467.4 296.24 430.85 242.46 422.79 248.04"/>
						<path class="st0" d="m475.46 290.88c7.457-4.913 5.846-3.869 7.452-4.872l-34.984-54.813c-1.649 1.032-0.234 0.112-8.207 5.361l35.739 54.324z"/>
				<path class="st1" d="m161.24 382.95c-16.201 24.589 19.243 46.16 34.46 23.044 15.658-24.213-19.124-46.718-34.46-23.044z"/>
				<path class="st1" d="m260.2 393.31l-5.428 7.091c-41.351-23.554-78.569 33.629-41.635 62.346l-4.545 7.687c-48.551-34.96 0.507-108.71 51.608-77.124z"/>
				<path class="st1" d="m196.32 406.41c11.38-17.665 43.737-5.119 60.881 8.178-11.501 15.767-19.77 28.443-30.077 44.952-18.486-10.562-42.552-35.246-30.803-53.131l-1e-3 1e-3z"/>
					<path class="st1" d="m286.01 482.91c0.977-1.565 0.053-0.138 4.872-7.452l-54.324-35.739c-5.294 8.042-4.302 6.514-5.361 8.207l54.813 34.984z"/>
					<polygon class="st1" points="296.24 467.4 301.31 460.08 248.04 422.79 242.46 430.85"/>
					<path class="st2" d="m254.56 298.04c-11.344-10.501-29.593-4.408-34.458 9.986-6.232 18.436 12.626 33.238 29.016 24.841 13.759-7.049 15.851-25.191 5.442-34.827z"/>
					<path class="st2" d="m321.28 323.44l-6.238 6.389c-37.902-28.626-82.253 23.209-49.398 56.398l-5.44 7.082c-44.226-41.584 15.198-107.25 61.076-69.869z"/>
					<path class="st2" d="m256.27 328.23c12.296-13.845 39.966-3.529 59.305 15.946-13.205 14.185-23.35 25.505-35.603 40.722-25.664-19.451-34.244-45.016-23.702-56.669v1e-3z"/>
						<polygon class="st2" points="335.36 415.68 341.11 408.88 291.85 366.43 285.52 373.91"/>
						<path class="st2" d="m347.51 401.61c5.801-6.544 4.711-5.329 5.936-6.642l-48.02-43.846c-1.258 1.351-0.279 0.255-6.535 7.307l48.619 43.181z"/>
					<path class="st3" d="m297.87 226.78c-21.84 19.503 6.663 49.64 27.428 31.084 20.998-18.471-5.605-50.284-27.428-31.084z"/>
					<path class="st3" d="m390.88 262.06c-5.188 3.977-3.559 2.697-7.036 5.498-33.916-33.291-84.615 12.288-56.204 49.616-6.221 6.074-5.198 5.071-6.364 6.264-38.328-46.579 28.52-104.7 69.604-61.378z"/>
					<path class="st3" d="m325.79 258.43c15.727-14.001 43.501 6.109 56.75 23.437-12.545 9.835-30.131 26.041-40.581 35.766-15.706-15.466-31.871-45.265-16.168-59.204l-1e-3 1e-3z"/>
						<path class="st3" d="m392.96 355.32c4.003-3.725 2.595-2.445 6.595-5.987l-43.387-48.435c-4.402 3.905-2.849 2.493-7.258 6.589l44.05 47.833z"/>
						<path class="st3" d="m406.79 342.91c1.397-1.229 0.085-0.105 6.788-5.768l-41.977-49.661c-7.379 6.238-5.964 5.03-7.468 6.351l42.657 49.078z"/>
					<path class="st4" d="m396.48 159.61c-27.645-4.97-37.451 36.549-8.925 41.387 27.625 4.583 35.49-36.738 8.925-41.387z"/>
					<path class="st4" d="m467.8 210.15l-7.686 4.544c-28.476-36.243-85.885 0.742-62.145 41.934l-7.087 5.433c-32.575-52.205 42.896-98.639 76.918-51.911z"/>
					<path class="st4" d="m403.7 198.11c14.73-9.708 38.68 5.299 53.286 30.613-6.415 4.003-21.092 12.94-44.83 30.257-13.461-17.202-25.91-48.89-8.455-60.87h-1e-3z"/>
						<polygon class="st4" points="457.82 302.88 465.14 297.8 428.36 244.18 420.31 249.77"/>
						<polygon class="st4" points="473.16 292.4 480.6 287.5 445.38 232.83 437.19 238.22"/>
				<path class="st0" d="m504.72 117.01c-4.9-10.776-18.041-14.633-28.647-9.37-30.896 15.398 1.881 57.617 24.894 32.199 5.464-6.002 7.308-15.011 3.753-22.829z"/>
				<path class="st0" d="m556.44 166.31c-7.802 3.187-6.715 2.742-8.25 3.413-23.533-40.507-85.036-10.96-67.319 32.981l-7.794 4.357c-25.053-55.994 55.494-93.08 83.363-40.751z"/>
				<path class="st0" d="m494.63 145.55c18.816-9.557 40.303 17.326 48.528 37.649-19.777 8.649-34.131 16.132-48.581 23.755-15.129-26.082-15.224-53.818 0.054-61.404h-1e-3z"/>
					<path class="st0" d="m533.76 256.75c1.856-1.003 2.956-1.526 7.947-4.002l-29.025-58.189c-5.207 2.587-6.645 3.277-8.753 4.411l29.831 57.78z"/>
					<polygon class="st0" points="550.38 248.46 558.44 244.7 531.12 185.69 522.23 189.84"/>
					<path class="st0" d="m599.54 81.125c-5.483-17.948-31.225-19.136-39.968-2.168-14.624 28.382 36.774 44.313 40.715 10.364 0.307-2.679 0.089-5.459-0.747-8.196z"/>
					<path class="st0" d="m644.38 136.72l-8.619 2.332c-18.122-43.321-82.888-21.665-71.058 23.876l-8.266 3.378c-17.218-57.835 66.889-85.595 87.943-29.586z"/>
					<path class="st0" d="m585.79 108.07c20.188-6.566 37.748 22.593 43.217 43.68-17.83 5.303-32.406 10.074-51.25 17.241-11.968-28.695-7.646-55.539 8.034-60.922l-1e-3 1e-3z"/>
						<polygon class="st0" points="610.12 223.45 618.51 220.49 597.32 159.02 588.07 162.28"/>
						<polygon class="st0" points="627.68 217.42 636.13 214.68 616.74 152.61 607.41 155.64"/>
					<path class="st0" d="m658.89 50.546c-15.332 22.298 19.166 45.469 35.629 22.843 17.619-24.316-20.232-45.255-35.629-22.843z"/>
					<path class="st0" d="m735.43 118.83l-8.843 1.238c-12.313-45.258-79.371-32.696-73.564 14.412-3.468 0.82-4.958 1.243-8.643 2.24-9.66-60.389 77.637-75.662 91.05-17.89z"/>
					<path class="st0" d="m681.09 82.849c20.772-3.985 34.469 27.273 37.144 48.884-16.383 2.716-34.515 5.888-53.065 10.419-7.848-28.999-0.814-56.093 15.922-59.303h-1e-3z"/>
						<polygon class="st0" points="690.16 200.4 698.85 198.52 685.85 134.8 676.27 136.88"/>
						<path class="st0" d="m708.35 196.7c7.072-1.361 4.999-0.987 8.751-1.604l-11.143-64.064c-3.99 0.66-1.836 0.269-9.641 1.765l12.033 63.903z"/>
					<path class="st0" d="m767.63 30.273c-21.127 10.132-11.693 40.643 11.136 39.195 5.791-0.367 10.901-3.042 14.571-6.887 16.014-17.038-3.894-42.664-25.707-32.308z"/>
					<path class="st0" d="m828.05 112.87l-8.93 0.114c-6.305-45.783-74.443-43.282-74.82 4.794-8.637 0.987-7.21 0.82-8.867 1.052-1.792-60.482 86.72-64.966 92.617-5.96z"/>
					<path class="st0" d="m778.81 70.213c21.046-1.27 30.649 31.394 30.518 53.24-1.304 0.05-33.78 1.071-53.988 3.461-2.915-21.612 2.395-55.241 23.472-56.701h-2e-3z"/>
						<path class="st0" d="m772.58 187.94c7.174-0.643 5.078-0.48 8.88-0.716l-4.641-64.86c-4.084 0.258-1.908 0.087-9.772 0.786l5.533 64.79z"/>
						<path class="st0" d="m791.12 186.62c4.714-0.303 2.692-0.204 8.903-0.434l-2.783-64.966c-6.818 0.258-4.631 0.15-9.793 0.478l3.673 64.922z"/>
				<path class="st1" d="m501.7 118.42c-7.99-17.374-33.938-14.373-39.892 3.213-8.793 25.354 30.514 39.094 40.395 12.727 1.877-5.017 1.889-10.739-0.503-15.94z"/>
				<path class="st1" d="m553.61 167.46c-5.071 2.078-3.315 1.336-8.221 3.483-23.556-40.153-85.306-11.152-67.187 33.248-4.675 2.613-5.913 3.284-7.771 4.397-25.192-55.576 55.078-93.223 83.179-41.128z"/>
				<path class="st1" d="m491.72 147c14.27-7.258 36.61 7.965 48.676 37.411-20.823 9.103-44.588 21.9-48.484 23.958-11.062-18.883-19.055-51.948-0.191-61.37l-1e-3 1e-3z"/>
					<path class="st1" d="m531.33 258.03c4.828-2.554 3.138-1.684 7.915-4.064l-29.274-58.064c-5.383 2.687-3.52 1.733-8.719 4.477l30.078 57.651z"/>
					<path class="st1" d="m547.91 249.66c2.149-1.072 0.519-0.293 8.043-3.801l-27.576-58.889c-8.011 3.739-6.505 3.019-8.86 4.19l28.393 58.5z"/>
					<path class="st2" d="m596.34 82.08c-8.222-26.55-50.619-12.03-40.907 13.99 9.412 25.22 48.9 11.824 40.907-13.99z"/>
					<path class="st2" d="m641.43 137.52l-8.619 2.332c-18.156-43.006-83.01-21.667-70.937 24.234l-8.266 3.377c-17.677-58.271 66.689-85.442 87.822-29.943z"/>
					<path class="st2" d="m582.72 109.11c20.128-6.79 37.788 22.221 43.404 43.493-19.178 5.729-32.833 10.477-51.178 17.452-11.703-27.723-8.407-55.255 7.776-60.946l-2e-3 1e-3z"/>
						<polygon class="st2" points="607.53 224.36 615.92 221.41 594.46 160.02 585.22 163.28"/>
						<polygon class="st2" points="625.06 218.27 633.52 215.52 613.86 153.54 604.54 156.57"/>
					<path class="st3" d="m661.48 45.437c-16.215 10.857-10.176 34.06 7.918 37.368 15.16 2.804 27.924-10.35 25.528-24.34 0-11.272-18.332-23.105-33.446-13.028z"/>
					<path class="st3" d="m732.4 119.26l-8.843 1.237c-12.37-44.727-79.574-32.844-73.507 14.713-0.593 0.131-8.034 2.155-8.624 2.314-9.978-60.42 77.319-75.929 90.974-18.264z"/>
					<path class="st3" d="m677.9 83.461c17.104-3.285 33.6 19.437 37.361 48.764-18.971 3.142-34.321 6.076-53.019 10.641-8.307-30.19-0.329-56.324 15.659-59.406l-1e-3 1e-3z"/>
						<polygon class="st3" points="687.48 200.99 696.17 199.09 682.89 135.44 673.32 137.52"/>
						<polygon class="st3" points="705.65 197.22 714.39 195.54 702.97 131.53 693.34 133.37"/>
					<path class="st4" d="m757.6 35.591c-18.081 20.305 13.571 47.394 32.459 27.117 19.632-20.98-13.666-48.209-32.459-27.117z"/>
					<path class="st4" d="m824.99 112.91l-8.93 0.113c-6.543-46.286-74.638-42.213-74.8 5.102-5.445 0.626-3.553 0.386-8.857 1.129-1.985-61.232 86.444-65.336 92.587-6.344z"/>
					<path class="st4" d="m775.57 70.419c21.085-1.341 30.784 31.346 30.745 53.149-4.149 0.158-29.79 0.919-53.97 3.689-4.326-31.054 6.95-55.803 23.227-56.838h-2e-3z"/>
						<polygon class="st4" points="769.84 188.19 778.71 187.4 773.8 122.56 764.03 123.42"/>
						<path class="st4" d="m788.38 186.79c5.214-0.334 6.706-0.456 8.898-0.507l-3.057-64.954c-2.358 0.06-3.792 0.174-9.788 0.555l3.947 64.906z"/>
				<path class="st0" d="m860.43 47.825c-1.086 26.956 40.491 29.734 43.079 2.927 1e-3 -30.372-42.049-28.492-43.079-2.927z"/>
				<path class="st0" d="m923.7 119.26c-5.428-0.76-3.536-0.517-8.857-1.129-0.163-46.846-68.202-51.787-74.8-5.102l-8.93-0.113c6.271-60.229 94.499-52.683 92.587 6.344z"/>
				<path class="st0" d="m880.52 70.418c18.38 1.169 27.014 29.653 23.227 56.838-14.816-1.903-39.042-3.12-53.97-3.688-0.05-29.849 13.593-54.241 30.744-53.149l-1e-3 -1e-3z"/>
					<path class="st0" d="m858.82 186.28c2.179 0.051 3.629 0.169 8.898 0.507l3.947-64.906c-5.738-0.364-7.378-0.494-9.789-0.555l-3.056 64.954z"/>
					<polygon class="st0" points="877.39 187.4 886.26 188.19 892.07 123.42 882.3 122.56"/>
					<path class="st0" d="m986.5 42.083c-28.897-5.563-35.39 35.415-8.154 40.645 28.577 5.192 35.743-35.607 8.154-40.645z"/>
					<path class="st0" d="m1014.7 137.52c-0.615-0.166-8.004-2.178-8.623-2.314 5.877-46.085-60.835-60.542-73.507-14.713l-8.843-1.237c13.9-58.705 100.67-40.484 90.973 18.264z"/>
					<path class="st0" d="m978.19 83.459c20.713 3.99 21.432 38.433 15.66 59.405-23.644-5.772-41.737-8.772-53.019-10.64 3.778-29.486 20.346-52.032 37.361-48.765h-2e-3z"/>
						<polygon class="st0" points="941.71 195.54 950.44 197.22 962.75 133.37 953.12 131.53"/>
						<polygon class="st0" points="959.93 199.09 968.62 200.99 982.78 137.52 973.2 135.44"/>
					<path class="st0" d="m1100.7 96.069c4.108-11.004-2.168-22.864-13.662-26.9-27.347-9.356-40.034 30.117-13.385 39.235 11.023 3.877 23.15-1.892 27.047-12.335z"/>
					<path class="st0" d="m1102.5 167.46l-8.266-3.377c11.719-44.565-52.448-68.035-70.937-24.234l-8.619-2.332c21.58-56.679 104.96-26.561 87.822 29.943z"/>
					<path class="st0" d="m1073.4 109.11c19.968 7.022 16.296 40.765 7.776 60.946-6.074-2.31-23.666-9.234-51.179-17.452 5.493-20.806 23.202-50.307 43.404-43.494h-1e-3z"/>
						<polygon class="st0" points="1022.6 215.52 1031 218.27 1051.6 156.57 1042.2 153.54"/>
						<polygon class="st0" points="1040.2 221.41 1048.6 224.36 1070.9 163.28 1061.6 160.02"/>
					<path class="st0" d="m1193.1 137.6c5.215-9.83 1.429-22.714-10.044-28.429-17.394-8.617-35.922 7.216-29.194 25.197 6.639 17.716 30.923 18.907 39.238 3.232z"/>
					<path class="st0" d="m1185.7 208.59c-1.833-1.098-2.948-1.701-7.771-4.397 17.907-43.887-43.506-73.618-67.187-33.248-5.021-2.197-3.266-1.452-8.221-3.483 28.571-52.967 107.82-13.221 83.179 41.128z"/>
					<path class="st0" d="m1164.4 146.99c18.875 9.427 10.862 42.502-0.191 61.37-14.607-7.715-31.789-16.659-48.484-23.957 12.131-29.606 34.513-44.615 48.676-37.412l-1e-3 -1e-3z"/>
						<path class="st0" d="m1100.1 245.86c7.315 3.41 5.881 2.723 8.043 3.801l28.393-58.5c-2.322-1.155-0.725-0.393-8.86-4.19l-27.576 58.889z"/>
						<path class="st0" d="m1116.8 253.97c4.888 2.436 3.197 1.569 7.915 4.064l30.078-57.651c-5.311-2.804-3.459-1.851-8.719-4.477l-29.274 58.064z"/>
				<path class="st1" d="m879.98 28.098c-29.033-1.841-30.601 39.599-2.65 41.37 28.501 1.807 30.763-39.587 2.65-41.37z"/>
				<path class="st1" d="m920.67 118.83c-1.665-0.233-0.402-0.085-8.867-1.052-0.369-46.797-68.38-51.571-74.82-4.794l-8.93-0.114c5.956-59.603 94.387-53.808 92.617 5.96z"/>
				<path class="st1" d="m877.28 70.213c21.078 1.459 26.388 35.095 23.472 56.701-16.256-1.864-38.1-2.854-53.988-3.46-0.18-30.06 13.481-54.268 30.517-53.24l-1e-3 -1e-3z"/>
					<path class="st1" d="m856.07 186.18c6.346 0.235 4.173 0.129 8.904 0.434l3.672-64.922c-5.058-0.321-2.851-0.215-9.793-0.478l-2.783 64.966z"/>
					<path class="st1" d="m874.64 187.23c3.75 0.233 1.689 0.072 8.88 0.716l5.533-64.79c-7.793-0.693-5.585-0.522-9.772-0.786l-4.641 64.86z"/>
					<path class="st2" d="m997.21 50.546c-10.644-15.493-36.204-11.397-39.335 7.371-4.437 26.593 36.482 34.591 42.418 8.302 0-1.001 2.246-7.922-3.083-15.673z"/>
					<path class="st2" d="m1011.7 136.72c-3.441-0.932-5.115-1.406-8.642-2.24 5.762-46.767-61.257-59.664-73.564-14.412l-8.843-1.238c13.699-59.012 100.38-40.447 91.049 17.89z"/>
					<path class="st2" d="m975 82.847c18.129 3.478 23.084 32.837 15.922 59.303-3.187-0.778-15.844-4.249-53.065-10.419 2.714-21.918 16.506-52.843 37.144-48.884h-1e-3z"/>
						<path class="st2" d="m939 195.1c3.658 0.602 1.626 0.233 8.751 1.604l12.032-63.903c-7.692-1.475-5.517-1.083-9.641-1.765l-11.142 64.064z"/>
						<polygon class="st2" points="957.24 198.52 965.94 200.4 979.82 136.88 970.24 134.8"/>
					<path class="st3" d="m1097.5 94.884c4.116-11.173-2.588-23.027-13.786-26.819-28.118-9.162-39.381 30.782-13.216 39.292 11.432 3.873 23.219-2.202 27.002-12.473z"/>
					<path class="st3" d="m1099.7 166.31l-8.265-3.377c11.682-44.982-52.845-67.422-71.058-23.876l-8.619-2.332c21.721-57.789 104.5-26.02 87.942 29.585z"/>
					<path class="st3" d="m1070.3 108.06c20.134 6.91 16.486 40.657 8.035 60.922-19.022-7.235-33.687-12.017-51.25-17.24 5.476-21.112 23.045-50.242 43.217-43.681l-2e-3 -1e-3z"/>
						<polygon class="st3" points="1020 214.67 1028.4 217.42 1048.7 155.64 1039.4 152.61"/>
						<polygon class="st3" points="1037.6 220.49 1046 223.45 1068 162.27 1058.8 159.02"/>
					<path class="st4" d="m1190.2 136.04c6.174-11.759-0.724-26.221-14.351-30.003-16.457-4.403-31.013 10.722-24.903 26.942 6.72 17.812 31.072 18.645 39.254 3.061z"/>
					<path class="st4" d="m1183 207.06l-7.794-4.357c17.629-43.733-43.683-73.671-67.319-32.981-1.536-0.672-0.491-0.244-8.25-3.413 28.406-53.337 107.89-14.078 83.363 40.751z"/>
					<path class="st4" d="m1161.5 145.55c15.381 7.637 15.074 35.508 0.055 61.404-15.924-8.401-30.615-15.898-48.582-23.755 12.142-29.998 34.587-44.73 48.528-37.649h-1e-3z"/>
						<polygon class="st4" points="1097.7 244.7 1105.7 248.46 1133.9 189.84 1125 185.69"/>
						<path class="st4" d="m1114.4 252.75c4.932 2.447 6.076 2.991 7.947 4.002l29.831-57.78c-2.112-1.137-3.571-1.836-8.753-4.411l-29.025 58.189z"/>
				<path class="st0" d="m1282.1 192.66c10.897-15.204-3.709-36.437-22.525-33.054-26.672 4.668-18.622 45.957 8.925 41.387 5.321-0.902 10.264-3.679 13.6-8.333z"/>
				<path class="st0" d="m1265.2 262.06l-7.087-5.433c23.516-40.807-33.036-78.987-62.145-41.934l-7.687-4.544c35.58-48.866 108.23 1.733 76.919 51.911z"/>
				<path class="st0" d="m1252.4 198.11c17.467 11.987 4.99 43.687-8.454 60.87-17.355-12.66-29.203-20.503-44.831-30.257 10.844-18.792 35.531-42.315 53.286-30.613h-1e-3z"/>
					<polygon class="st0" points="1175.5 287.5 1182.9 292.4 1218.9 238.22 1210.7 232.83"/>
					<polygon class="st0" points="1191 297.8 1198.3 302.88 1235.8 249.76 1227.7 244.18"/>
					<path class="st0" d="m1350.7 222.32c-32.77-11.112-37.531 41.697-4.72 41.013 23.782-0.687 27.069-33.412 4.72-41.013z"/>
					<path class="st0" d="m1334.8 323.44c-1.157-1.185-0.259-0.304-6.364-6.264 28.075-36.892-22.166-83.031-56.204-49.616-3.347-2.696-1.821-1.499-7.036-5.498 41.68-43.956 107.4 15.448 69.604 61.378z"/>
					<path class="st0" d="m1330.3 258.42c15.783 14.009-0.632 43.907-16.168 59.204-9.933-9.244-27.91-25.834-40.581-35.766 18.922-24.748 44.499-34.344 56.749-23.438z"/>
						<path class="st0" d="m1242.5 337.14c6.85 5.787 5.347 4.501 6.788 5.768l42.657-49.079c-1.468-1.288-0.172-0.182-7.468-6.351l-41.977 49.662z"/>
						<path class="st0" d="m1256.5 349.33c4.086 3.619 2.684 2.347 6.595 5.987l44.05-47.833c-4.409-4.096-2.859-2.687-7.258-6.589l-43.387 48.435z"/>
					<path class="st0" d="m1416.7 292.8c-26.925-1.939-29.842 39.629-1.982 42.314 28.629 2.743 30.099-40.054 1.982-42.314z"/>
					<path class="st0" d="m1395.9 393.31l-5.44-7.081c32.787-33.125-11.382-85.113-49.398-56.398l-6.239-6.39c47.038-38.329 104.11 29.406 61.077 69.869z"/>
					<path class="st0" d="m1399.8 328.22c14.077 15.56-6.356 43.523-23.701 56.669-12.715-15.791-22.839-27.01-35.603-40.722 14.997-15.103 45.105-31.936 59.305-15.946l-1e-3 -1e-3z"/>
						<path class="st0" d="m1302.7 394.97c1.191 1.275 0.205 0.177 5.936 6.642l48.619-43.181c-6.389-7.201-5.236-5.912-6.535-7.307l-48.02 43.846z"/>
						<polygon class="st0" points="1315 408.87 1320.7 415.68 1370.6 373.91 1364.2 366.42"/>
					<path class="st0" d="m1489.4 412.6c16.026-10.074 10.156-35.218-8.353-39.119-26.732-5.646-34.252 35.576-7.341 41.66 5.19 1.226 10.849 0.505 15.694-2.541z"/>
					<path class="st0" d="m1447.5 470.43l-4.545-7.686c37.073-28.827-0.79-85.614-41.635-62.346l-5.428-7.091c51.478-31.821 99.524 42.621 51.608 77.123z"/>
					<path class="st0" d="m1459.8 406.41c11.646 17.729-11.66 42.194-30.803 53.131-3.618-5.795-14.383-23.44-30.077-44.952 17.31-13.425 49.558-25.755 60.881-8.178l-1e-3 -1e-3z"/>
						<polygon class="st0" points="1354.8 460.08 1359.9 467.4 1413.6 430.85 1408.1 422.79"/>
						<path class="st0" d="m1365.2 475.46c4.909 7.45 3.873 5.852 4.872 7.452l54.813-34.984c-1.039-1.66-0.123-0.251-5.361-8.207l-54.324 35.739z"/>
				<path class="st1" d="m1282.6 175.08c-3.94-18.7-29.144-24.222-39.119-8.353-9.56 15.208 3.951 35.491 22.352 32.398 11.449-1.931 19.201-12.523 16.767-24.045z"/>
				<path class="st1" d="m1262.8 260.2l-7.091-5.428c23.015-40.406-33.407-78.855-62.346-41.635l-7.687-4.545c35.248-48.95 108.44 0.955 77.124 51.608z"/>
				<path class="st1" d="m1249.7 196.32c17.665 11.379 5.119 43.738-8.178 60.881-15.79-11.519-28.514-19.815-44.952-30.077 10.611-18.574 35.282-42.528 53.131-30.803l-1e-3 -1e-3z"/>
					<path class="st1" d="m1173.2 286.01c1.564 0.976 0.139 0.053 7.452 4.872l35.739-54.324c-8.032-5.288-6.515-4.302-8.207-5.361l-34.984 54.813z"/>
					<polygon class="st1" points="1188.7 296.24 1196 301.31 1233.3 248.04 1225.2 242.46"/>
					<path class="st2" d="m1352 221.88c-19.098-10.789-38.106 9.081-28.8 27.246 3.847 7.509 11.58 12.32 20.332 11.975 21.221-0.658 27.293-28.443 8.468-39.221z"/>
					<path class="st2" d="m1332.7 321.28l-6.389-6.238c28.299-37.469-22.987-82.473-56.398-49.398l-7.082-5.44c41.728-44.379 107.04 15.457 69.869 61.076z"/>
					<path class="st2" d="m1327.9 256.27c13.909 12.353 3.412 40.082-15.946 59.305-14.188-13.207-25.505-23.35-40.722-35.603 19.564-25.809 45.105-34.164 56.669-23.702h-1e-3z"/>
						<polygon class="st2" points="1240.4 335.36 1247.2 341.11 1289.7 291.85 1282.2 285.52"/>
						<path class="st2" d="m1254.5 347.51c6.52 5.78 5.329 4.711 6.642 5.936l43.846-48.02c-1.313-1.222-0.11-0.15-7.307-6.535l-43.181 48.619z"/>
					<path class="st3" d="m1433.8 305.41c-4.806-14.127-23.075-20.508-34.522-9.82-13.075 12.207-5.333 35.268 13.326 37.025 14.842 1.389 26.227-12.368 21.196-27.205z"/>
					<path class="st3" d="m1394 390.88c-3.952-5.155-2.703-3.567-5.498-7.036 32.771-33.386-11.963-84.862-49.616-56.204-6.075-6.222-5.068-5.196-6.264-6.364 45.601-37.523 105.6 27.668 61.378 69.604z"/>
					<path class="st3" d="m1397.7 325.79c14.001 15.727-6.109 43.5-23.437 56.75-9.45-12.055-25.288-29.323-35.766-40.581 20.961-21.288 47.801-29.015 59.204-16.168l-1e-3 -1e-3z"/>
						<path class="st3" d="m1300.8 392.96c3.725 4.003 2.445 2.595 5.987 6.595l48.435-43.387c-3.987-4.495-2.588-2.951-6.589-7.258l-47.833 44.05z"/>
						<path class="st3" d="m1313.2 406.79c1.237 1.407 0.083 0.06 5.768 6.788l49.662-41.977c-6.279-7.427-5.02-5.953-6.351-7.468l-49.079 42.657z"/>
					<path class="st4" d="m1493 380.09c-16.666-24.245-50.027 0.426-34.362 23.191 14.922 22.641 50.758 1.655 34.362-23.191z"/>
					<path class="st4" d="m1445.9 467.8l-4.544-7.687c37.109-29.155-1.344-85.538-41.934-62.145l-5.433-7.087c51.934-32.405 98.85 42.743 51.911 76.919z"/>
					<path class="st4" d="m1458 403.7c11.649 17.676-11.63 42.333-30.613 53.286-4.022-6.444-12.923-21.068-30.257-44.83 17.142-13.412 48.873-25.934 60.87-8.455v-1e-3z"/>
						<polygon class="st4" points="1353.2 457.82 1358.3 465.14 1411.9 428.36 1406.3 420.31"/>
						<polygon class="st4" points="1363.7 473.16 1368.6 480.6 1423.3 445.38 1417.9 437.19"/>
				<path class="st0" d="m1550.1 480.27c-8.81-31.748-52.341-13.022-38.842 14.033 11.365 22.89 45.538 10.987 38.842-14.033z"/>
				<path class="st0" d="m1489.8 556.44c-3.19-7.81-2.745-6.722-3.413-8.25 40.35-23.442 11.161-85.116-32.981-67.319l-4.357-7.794c54.462-24.368 93.663 55.183 40.751 83.363z"/>
				<path class="st0" d="m1510.5 494.63c9.558 18.818-17.327 40.304-37.649 48.528-7.869-17.998-15.077-32.131-23.755-48.581 25.601-14.851 53.7-15.461 61.404 0.054v-1e-3z"/>
					<path class="st0" d="m1399.3 533.76c1.003 1.855 1.524 2.954 4.002 7.947l58.189-29.025c-2.556-5.145-3.27-6.633-4.411-8.753l-57.78 29.831z"/>
					<polygon class="st0" points="1407.6 550.38 1411.4 558.44 1470.4 531.12 1466.3 522.23"/>
					<path class="st0" d="m1588 572.34c-9.363-27.645-48.274-13.293-39.292 13.216 8.465 26.027 48.497 15.036 39.292-13.216z"/>
					<path class="st0" d="m1519.4 644.38l-2.332-8.619c42.573-17.809 22.783-83.178-23.876-71.058l-3.377-8.266c57.886-17.234 85.564 66.901 29.585 87.943z"/>
					<path class="st0" d="m1548 585.79c6.566 20.189-22.594 37.748-43.68 43.217-6.115-20.561-10.904-34.59-17.241-51.25 28.613-11.932 55.52-7.703 60.922 8.034l-1e-3 -1e-3z"/>
						<polygon class="st0" points="1432.6 610.12 1435.6 618.51 1497.1 597.32 1493.8 588.07"/>
						<polygon class="st0" points="1438.7 627.68 1441.4 636.13 1503.5 616.74 1500.5 607.41"/>
					<path class="st0" d="m1611.6 689.44c10.27-15.425-3.05-37.847-21.7-33.636-17.38 3.925-22.52 27.544-7.171 38.711 9.329 6.76 22.31 4.819 28.871-5.075z"/>
					<path class="st0" d="m1537.3 735.43l-1.238-8.843c44.281-12.046 33.43-79.462-14.412-73.564-0.818-3.461-1.241-4.951-2.24-8.643 59.438-9.508 75.818 77.6 17.89 91.05z"/>
					<path class="st0" d="m1573.2 681.09c3.986 20.775-27.279 34.469-48.884 37.144-2.629-15.868-5.889-34.516-10.419-53.065 29.843-8.076 56.18-0.359 59.303 15.922v-1e-3z"/>
						<polygon class="st0" points="1455.7 690.16 1457.6 698.85 1521.3 685.85 1519.2 676.27"/>
						<path class="st0" d="m1459.4 708.35c1.368 7.111 0.984 4.982 1.604 8.751l64.064-11.143c-0.663-4.016-0.294-1.968-1.765-9.641l-63.903 12.033z"/>
					<path class="st0" d="m1625.8 767.63c-14.739-30.732-56.333 2.779-32.309 25.707 17.038 16.015 42.666-3.891 32.309-25.707z"/>
					<path class="st0" d="m1543.2 828.05l-0.114-8.93c45.402-6.252 43.041-74.445-4.794-74.82-0.986-8.628-0.821-7.222-1.052-8.867 61.026-1.808 64.346 86.782 5.96 92.617z"/>
					<path class="st0" d="m1585.9 778.81c1.27 21.045-31.394 30.649-53.24 30.518-1.203-31.541-3.162-51.459-3.461-53.988 28.992-3.911 55.487 5.956 56.701 23.472v-2e-3z"/>
						<path class="st0" d="m1468.2 772.58c0.642 7.164 0.48 5.079 0.716 8.88l64.86-4.641c-0.255-4.023-0.069-1.706-0.786-9.772l-64.79 5.533z"/>
						<path class="st0" d="m1469.5 791.12c0.297 4.61 0.2 2.594 0.434 8.903l64.966-2.783c-0.263-6.946-0.147-4.577-0.478-9.793l-64.922 3.673z"/>
				<path class="st1" d="m1534.5 461.8c-25.354-8.793-39.093 30.514-12.727 40.395 27.134 10.153 39.233-31.421 12.727-40.395z"/>
				<path class="st1" d="m1488.6 553.61c-2.083-5.081-1.332-3.305-3.483-8.221 40.473-23.743 10.575-85.071-33.248-67.187-2.56-4.58-3.27-5.891-4.397-7.771 54.616-24.757 93.425 54.969 41.128 83.179z"/>
				<path class="st1" d="m1509.1 491.72c7.264 14.283-7.99 36.622-37.411 48.676-9.088-20.785-21.858-44.509-23.958-48.484 25.789-15.108 53.706-15.537 61.37-0.191l-1e-3 -1e-3z"/>
					<path class="st1" d="m1398.1 531.33c2.554 4.828 1.684 3.138 4.064 7.915l58.064-29.274c-2.687-5.383-1.733-3.52-4.477-8.719l-57.651 30.078z"/>
					<path class="st1" d="m1406.4 547.91c1.067 2.141 0.33 0.599 3.801 8.043l58.889-27.576c-3.738-8.007-3.015-6.497-4.19-8.86l-58.5 28.393z"/>
					<path class="st2" d="m1576 556.36c-24.11-12.32-42.61 25.432-17.892 38.406 25.487 13.446 43.015-25.594 17.892-38.406z"/>
					<path class="st2" d="m1518.6 641.43l-2.332-8.619c43.019-18.162 21.725-83.025-24.234-70.937l-3.377-8.266c58.038-17.606 85.567 66.641 29.943 87.822z"/>
					<path class="st2" d="m1547 582.72c6.79 20.128-22.221 37.789-43.493 43.404-6.022-20.158-10.818-33.729-17.452-51.178 27.842-11.754 55.274-8.354 60.946 7.776l-1e-3 -2e-3z"/>
						<polygon class="st2" points="1431.7 607.53 1434.7 615.92 1496.1 594.46 1492.8 585.22"/>
						<polygon class="st2" points="1437.8 625.06 1440.6 633.52 1502.6 613.86 1499.5 604.54"/>
					<path class="st3" d="m1610.7 661.48c-10.85-16.204-34.058-10.19-37.368 7.918-1.495 8.083 1.581 16.769 8.849 21.889 19.421 13.785 41.656-10.103 28.519-29.807z"/>
					<path class="st3" d="m1536.8 732.4l-1.237-8.843c44.371-12.271 32.579-79.54-14.713-73.507-0.129-0.584-2.158-8.046-2.314-8.624 59.912-9.894 75.695 77.375 18.264 90.974z"/>
					<path class="st3" d="m1572.6 677.9c3.986 20.755-26.998 34.572-48.764 37.361-3.148-18.996-6.076-34.317-10.641-53.019 30.868-8.497 56.395 0.043 59.406 15.659l-1e-3 -1e-3z"/>
						<polygon class="st3" points="1455.1 687.48 1457 696.17 1520.7 682.89 1518.6 673.32"/>
						<polygon class="st3" points="1458.9 705.65 1460.6 714.39 1524.6 702.97 1522.7 693.34"/>
					<path class="st4" d="m1622.7 788.63c12.129-14.122 1.634-37.877-17.323-36.047-17.85 1.724-25.731 24.646-11.955 37.477 8.419 7.88 21.54 7.536 29.278-1.43z"/>
					<path class="st4" d="m1543.2 824.99l-0.113-8.93c46.38-6.557 42.123-74.638-5.102-74.8-0.623-5.423-0.389-3.575-1.129-8.857 60.065-1.946 65.887 86.386 6.344 92.587z"/>
					<path class="st4" d="m1585.7 775.57c1.341 21.087-31.349 30.782-53.149 30.745-0.132-3.481-0.953-30.114-3.689-53.97 30.102-4.191 55.769 6.413 56.838 23.227v-2e-3z"/>
						<polygon class="st4" points="1467.9 769.84 1468.7 778.71 1533.5 773.8 1532.7 764.03"/>
						<path class="st4" d="m1469.3 788.38c0.335 5.229 0.456 6.712 0.507 8.898l64.954-3.057c-0.06-2.358-0.174-3.792-0.555-9.788l-64.906 3.947z"/>
</svg>